# This file uses centimeters as units for non-parametric coordinates.

mtllib Selector.mtl
g default
v 0.063940 0.463085 1.500000
v 0.036915 0.436061 1.500000
v 0.000000 0.426169 1.500000
v -0.036915 0.436061 1.500000
v -0.063940 0.463085 1.500000
v -0.073831 0.500000 1.500000
v -0.063940 0.536916 1.500000
v -0.036915 0.563940 1.500000
v 0.000000 0.573831 1.500000
v 0.036915 0.563940 1.500000
v 0.063940 0.536916 1.500000
v 0.073831 0.500000 1.500000
v 0.844156 0.012626 -0.500000
v 0.487374 -0.344156 -0.500000
v 0.000000 -0.474747 -0.500000
v -0.487374 -0.344156 -0.500000
v -0.844156 0.012626 -0.500000
v -0.974747 0.500000 -0.500000
v -0.844156 0.987374 -0.500000
v -0.487374 1.344156 -0.500000
v 0.000000 1.474747 -0.500000
v 0.487374 1.344156 -0.500000
v 0.844156 0.987374 -0.500000
v 0.974747 0.500000 -0.500000
v 0.836516 0.017037 -0.758819
v 0.482963 -0.336516 -0.758819
v 0.000000 -0.465926 -0.758819
v -0.482963 -0.336516 -0.758819
v -0.836516 0.017037 -0.758819
v -0.965926 0.500000 -0.758819
v -0.836516 0.982963 -0.758819
v -0.482963 1.336516 -0.758819
v 0.000000 1.465926 -0.758819
v 0.482963 1.336516 -0.758819
v 0.836516 0.982963 -0.758819
v 0.965926 0.500000 -0.758819
v 0.750000 0.066987 -1.000000
v 0.433013 -0.250000 -1.000000
v 0.000000 -0.366025 -1.000000
v -0.433013 -0.250000 -1.000000
v -0.750000 0.066987 -1.000000
v -0.866025 0.500000 -1.000000
v -0.750000 0.933013 -1.000000
v -0.433013 1.250000 -1.000000
v 0.000000 1.366025 -1.000000
v 0.433013 1.250000 -1.000000
v 0.750000 0.933013 -1.000000
v 0.866025 0.500000 -1.000000
v 0.612372 0.146447 -1.207107
v 0.353553 -0.112372 -1.207107
v 0.000000 -0.207107 -1.207107
v -0.353553 -0.112372 -1.207107
v -0.612372 0.146447 -1.207107
v -0.707107 0.500000 -1.207107
v -0.612372 0.853553 -1.207107
v -0.353553 1.112372 -1.207107
v 0.000000 1.207107 -1.207107
v 0.353553 1.112372 -1.207107
v 0.612372 0.853553 -1.207107
v 0.707107 0.500000 -1.207107
v 0.433013 0.250000 -1.366025
v 0.250000 0.066987 -1.366025
v 0.000000 0.000000 -1.366025
v -0.250000 0.066987 -1.366025
v -0.433013 0.250000 -1.366025
v -0.500000 0.500000 -1.366025
v -0.433013 0.750000 -1.366025
v -0.250000 0.933013 -1.366025
v 0.000000 1.000000 -1.366025
v 0.250000 0.933013 -1.366025
v 0.433013 0.750000 -1.366025
v 0.500000 0.500000 -1.366025
v 0.224144 0.370590 -1.465926
v 0.129410 0.275856 -1.465926
v 0.000000 0.241181 -1.465926
v -0.129410 0.275856 -1.465926
v -0.224144 0.370590 -1.465926
v -0.258819 0.500000 -1.465926
v -0.224144 0.629410 -1.465926
v -0.129410 0.724144 -1.465926
v 0.000000 0.758819 -1.465926
v 0.129410 0.724144 -1.465926
v 0.224144 0.629410 -1.465926
v 0.258819 0.500000 -1.465926
v 0.000000 0.500000 -1.500000
v 0.036915 0.500000 1.500000
v 0.000000 0.500000 1.500000
v -0.036915 0.500000 1.500000
v 0.767871 0.056669 -0.255252
v 0.443330 -0.267871 -0.255252
v 0.000000 -0.386661 -0.255252
v -0.443330 -0.267871 -0.255252
v -0.767871 0.056669 -0.255252
v -0.886661 0.500000 -0.255252
v -0.767871 0.943331 -0.255252
v -0.443330 1.267871 -0.255252
v 0.000000 1.386661 -0.255252
v 0.443330 1.267871 -0.255252
v 0.767871 0.943331 -0.255252
v 0.886661 0.500000 -0.255252
vt 0.375000 0.312500
vt 0.395833 0.312500
vt 0.416667 0.312500
vt 0.437500 0.312500
vt 0.458333 0.312500
vt 0.479167 0.312500
vt 0.500000 0.312500
vt 0.520833 0.312500
vt 0.541667 0.312500
vt 0.562500 0.312500
vt 0.583333 0.312500
vt 0.604167 0.312500
vt 0.625000 0.312500
vt 0.375000 0.688440
vt 0.395833 0.688440
vt 0.416667 0.688440
vt 0.437500 0.688440
vt 0.458333 0.688440
vt 0.479167 0.688440
vt 0.500000 0.688440
vt 0.520833 0.688440
vt 0.541667 0.688440
vt 0.562500 0.688440
vt 0.583333 0.688440
vt 0.604167 0.688440
vt 0.625000 0.688440
vt 0.000000 0.500000
vt 0.083333 0.500000
vt 0.083333 0.583333
vt 0.000000 0.583333
vt 0.166667 0.500000
vt 0.166667 0.583333
vt 0.250000 0.500000
vt 0.250000 0.583333
vt 0.333333 0.500000
vt 0.333333 0.583333
vt 0.416667 0.500000
vt 0.416667 0.583333
vt 0.500000 0.500000
vt 0.500000 0.583333
vt 0.583333 0.500000
vt 0.583333 0.583333
vt 0.666667 0.500000
vt 0.666667 0.583333
vt 0.750000 0.500000
vt 0.750000 0.583333
vt 0.833333 0.500000
vt 0.833333 0.583333
vt 0.916667 0.500000
vt 0.916667 0.583333
vt 1.000000 0.500000
vt 1.000000 0.583333
vt 0.083333 0.666667
vt 0.000000 0.666667
vt 0.166667 0.666667
vt 0.250000 0.666667
vt 0.333333 0.666667
vt 0.416667 0.666667
vt 0.500000 0.666667
vt 0.583333 0.666667
vt 0.666667 0.666667
vt 0.750000 0.666667
vt 0.833333 0.666667
vt 0.916667 0.666667
vt 1.000000 0.666667
vt 0.083333 0.750000
vt 0.000000 0.750000
vt 0.166667 0.750000
vt 0.250000 0.750000
vt 0.333333 0.750000
vt 0.416667 0.750000
vt 0.500000 0.750000
vt 0.583333 0.750000
vt 0.666667 0.750000
vt 0.750000 0.750000
vt 0.833333 0.750000
vt 0.916667 0.750000
vt 1.000000 0.750000
vt 0.083333 0.833333
vt 0.000000 0.833333
vt 0.166667 0.833333
vt 0.250000 0.833333
vt 0.333333 0.833333
vt 0.416667 0.833333
vt 0.500000 0.833333
vt 0.583333 0.833333
vt 0.666667 0.833333
vt 0.750000 0.833333
vt 0.833333 0.833333
vt 0.916667 0.833333
vt 1.000000 0.833333
vt 0.083333 0.916667
vt 0.000000 0.916667
vt 0.166667 0.916667
vt 0.250000 0.916667
vt 0.333333 0.916667
vt 0.416667 0.916667
vt 0.500000 0.916667
vt 0.583333 0.916667
vt 0.666667 0.916667
vt 0.750000 0.916667
vt 0.833333 0.916667
vt 0.916667 0.916667
vt 1.000000 0.916667
vt 0.041667 1.000000
vt 0.125000 1.000000
vt 0.208333 1.000000
vt 0.291667 1.000000
vt 0.375000 1.000000
vt 0.458333 1.000000
vt 0.541667 1.000000
vt 0.625000 1.000000
vt 0.708333 1.000000
vt 0.791667 1.000000
vt 0.875000 1.000000
vt 0.958333 1.000000
vt 0.479167 0.312500
vt 0.479167 0.312500
vt 0.479167 0.312500
vt 0.625000 0.642435
vt 0.375000 0.642435
vt 0.395833 0.642435
vt 0.416667 0.642435
vt 0.437500 0.642435
vt 0.458333 0.642435
vt 0.479167 0.642435
vt 0.500000 0.642435
vt 0.520833 0.642435
vt 0.541667 0.642435
vt 0.562500 0.642435
vt 0.583333 0.642435
vt 0.604167 0.642435
vn 0.793015 -0.457847 0.401874
vn 0.457847 -0.793015 0.401874
vn 0.494597 -0.856667 0.146615
vn 0.856667 -0.494597 0.146615
vn 0.000000 -0.915695 0.401874
vn 0.000000 -0.989194 0.146615
vn -0.457847 -0.793015 0.401874
vn -0.494597 -0.856667 0.146615
vn -0.793015 -0.457847 0.401874
vn -0.856667 -0.494597 0.146615
vn -0.915695 0.000000 0.401874
vn -0.989194 0.000000 0.146615
vn -0.793015 0.457847 0.401874
vn -0.856667 0.494597 0.146615
vn -0.457847 0.793015 0.401874
vn -0.494597 0.856667 0.146615
vn 0.000000 0.915695 0.401874
vn 0.000000 0.989194 0.146615
vn 0.457847 0.793015 0.401874
vn 0.494597 0.856667 0.146615
vn 0.793015 0.457847 0.401874
vn 0.856667 0.494597 0.146615
vn 0.915695 -0.000000 0.401874
vn 0.989194 0.000000 0.146615
vn 0.489785 -0.848333 -0.201099
vn 0.848333 -0.489786 -0.201099
vn -0.000000 -0.979571 -0.201099
vn -0.489785 -0.848333 -0.201099
vn -0.848333 -0.489786 -0.201099
vn -0.979571 0.000000 -0.201099
vn -0.848333 0.489786 -0.201099
vn -0.489786 0.848333 -0.201099
vn 0.000000 0.979571 -0.201099
vn 0.489786 0.848333 -0.201099
vn 0.848333 0.489786 -0.201099
vn 0.979571 -0.000000 -0.201099
vn 0.438135 -0.758871 -0.481822
vn 0.758871 -0.438134 -0.481822
vn 0.000000 -0.876269 -0.481822
vn -0.438135 -0.758871 -0.481822
vn -0.758871 -0.438134 -0.481822
vn -0.876269 -0.000000 -0.481822
vn -0.758871 0.438134 -0.481822
vn -0.438135 0.758871 -0.481822
vn -0.000000 0.876269 -0.481822
vn 0.438134 0.758871 -0.481822
vn 0.758871 0.438134 -0.481822
vn 0.876269 -0.000000 -0.481822
vn 0.364806 -0.631862 -0.683862
vn 0.631862 -0.364806 -0.683862
vn 0.000000 -0.729611 -0.683862
vn -0.364806 -0.631862 -0.683862
vn -0.631862 -0.364806 -0.683862
vn -0.729611 -0.000000 -0.683862
vn -0.631862 0.364806 -0.683862
vn -0.364806 0.631862 -0.683862
vn -0.000000 0.729611 -0.683862
vn 0.364806 0.631862 -0.683862
vn 0.631862 0.364806 -0.683862
vn 0.729611 0.000000 -0.683862
vn 0.270244 -0.468076 -0.841352
vn 0.468076 -0.270244 -0.841352
vn 0.000000 -0.540488 -0.841352
vn -0.270244 -0.468076 -0.841352
vn -0.468076 -0.270244 -0.841352
vn -0.540488 -0.000000 -0.841352
vn -0.468076 0.270244 -0.841352
vn -0.270244 0.468076 -0.841352
vn -0.000000 0.540488 -0.841352
vn 0.270244 0.468076 -0.841352
vn 0.468076 0.270244 -0.841352
vn 0.540488 0.000000 -0.841352
vn 0.167293 -0.289759 -0.942366
vn 0.289759 -0.167293 -0.942366
vn 0.000000 -0.334585 -0.942366
vn -0.167292 -0.289759 -0.942366
vn -0.289759 -0.167293 -0.942366
vn -0.334585 -0.000000 -0.942366
vn -0.289759 0.167293 -0.942366
vn -0.167293 0.289759 -0.942365
vn -0.000000 0.334585 -0.942366
vn 0.167293 0.289759 -0.942365
vn 0.289759 0.167293 -0.942366
vn 0.334585 0.000000 -0.942366
vn -0.000000 -0.000000 -1.000000
vn 0.452993 -0.784607 0.423307
vn 0.000000 0.000000 1.000000
vn 0.000000 0.000000 1.000000
vn 0.000000 -0.905794 0.423718
vn -0.452993 -0.784607 0.423307
vn 0.000000 0.000000 1.000000
vn -0.906435 -0.000000 0.422346
vn -0.784996 -0.453217 0.422346
vn 0.784996 -0.453217 0.422346
vn 0.906435 -0.000000 0.422346
vn 0.784996 0.453217 0.422346
vn 0.452993 0.784607 0.423307
vn 0.000000 0.905794 0.423718
vn -0.452993 0.784607 0.423307
vn -0.784996 0.453217 0.422346
s 1
g Selector
usemtl initialShadingGroup
f 89/121/1 90/122/2 14/15/3 13/14/4
f 90/122/2 91/123/5 15/16/6 14/15/3
f 91/123/5 92/124/7 16/17/8 15/16/6
f 92/124/7 93/125/9 17/18/10 16/17/8
f 93/125/9 94/126/11 18/19/12 17/18/10
f 94/126/11 95/127/13 19/20/14 18/19/12
f 95/127/13 96/128/15 20/21/16 19/20/14
f 96/128/15 97/129/17 21/22/18 20/21/16
f 97/129/17 98/130/19 22/23/20 21/22/18
f 98/130/19 99/131/21 23/24/22 22/23/20
f 99/131/21 100/132/23 24/25/24 23/24/22
f 100/132/23 89/120/1 13/26/4 24/25/24
f 13/27/4 14/28/3 26/29/25 25/30/26
f 14/28/3 15/31/6 27/32/27 26/29/25
f 15/31/6 16/33/8 28/34/28 27/32/27
f 16/33/8 17/35/10 29/36/29 28/34/28
f 17/35/10 18/37/12 30/38/30 29/36/29
f 18/37/12 19/39/14 31/40/31 30/38/30
f 19/39/14 20/41/16 32/42/32 31/40/31
f 20/41/16 21/43/18 33/44/33 32/42/32
f 21/43/18 22/45/20 34/46/34 33/44/33
f 22/45/20 23/47/22 35/48/35 34/46/34
f 23/47/22 24/49/24 36/50/36 35/48/35
f 24/49/24 13/51/4 25/52/26 36/50/36
f 25/30/26 26/29/25 38/53/37 37/54/38
f 26/29/25 27/32/27 39/55/39 38/53/37
f 27/32/27 28/34/28 40/56/40 39/55/39
f 28/34/28 29/36/29 41/57/41 40/56/40
f 29/36/29 30/38/30 42/58/42 41/57/41
f 30/38/30 31/40/31 43/59/43 42/58/42
f 31/40/31 32/42/32 44/60/44 43/59/43
f 32/42/32 33/44/33 45/61/45 44/60/44
f 33/44/33 34/46/34 46/62/46 45/61/45
f 34/46/34 35/48/35 47/63/47 46/62/46
f 35/48/35 36/50/36 48/64/48 47/63/47
f 36/50/36 25/52/26 37/65/38 48/64/48
f 37/54/38 38/53/37 50/66/49 49/67/50
f 38/53/37 39/55/39 51/68/51 50/66/49
f 39/55/39 40/56/40 52/69/52 51/68/51
f 40/56/40 41/57/41 53/70/53 52/69/52
f 41/57/41 42/58/42 54/71/54 53/70/53
f 42/58/42 43/59/43 55/72/55 54/71/54
f 43/59/43 44/60/44 56/73/56 55/72/55
f 44/60/44 45/61/45 57/74/57 56/73/56
f 45/61/45 46/62/46 58/75/58 57/74/57
f 46/62/46 47/63/47 59/76/59 58/75/58
f 47/63/47 48/64/48 60/77/60 59/76/59
f 48/64/48 37/65/38 49/78/50 60/77/60
f 49/67/50 50/66/49 62/79/61 61/80/62
f 50/66/49 51/68/51 63/81/63 62/79/61
f 51/68/51 52/69/52 64/82/64 63/81/63
f 52/69/52 53/70/53 65/83/65 64/82/64
f 53/70/53 54/71/54 66/84/66 65/83/65
f 54/71/54 55/72/55 67/85/67 66/84/66
f 55/72/55 56/73/56 68/86/68 67/85/67
f 56/73/56 57/74/57 69/87/69 68/86/68
f 57/74/57 58/75/58 70/88/70 69/87/69
f 58/75/58 59/76/59 71/89/71 70/88/70
f 59/76/59 60/77/60 72/90/72 71/89/71
f 60/77/60 49/78/50 61/91/62 72/90/72
f 61/80/62 62/79/61 74/92/73 73/93/74
f 62/79/61 63/81/63 75/94/75 74/92/73
f 63/81/63 64/82/64 76/95/76 75/94/75
f 64/82/64 65/83/65 77/96/77 76/95/76
f 65/83/65 66/84/66 78/97/78 77/96/77
f 66/84/66 67/85/67 79/98/79 78/97/78
f 67/85/67 68/86/68 80/99/80 79/98/79
f 68/86/68 69/87/69 81/100/81 80/99/80
f 69/87/69 70/88/70 82/101/82 81/100/81
f 70/88/70 71/89/71 83/102/83 82/101/82
f 71/89/71 72/90/72 84/103/84 83/102/83
f 72/90/72 61/91/62 73/104/74 84/103/84
f 73/93/74 74/92/73 85/105/85
f 74/92/73 75/94/75 85/106/85
f 75/94/75 76/95/76 85/107/85
f 76/95/76 77/96/77 85/108/85
f 77/96/77 78/97/78 85/109/85
f 78/97/78 79/98/79 85/110/85
f 79/98/79 80/99/80 85/111/85
f 80/99/80 81/100/81 85/112/85
f 81/100/81 82/101/82 85/113/85
f 82/101/82 83/102/83 85/114/85
f 83/102/83 84/103/84 85/115/85
f 84/103/84 73/104/74 85/116/85
f 2/2/86 86/117/87 87/118/88 3/3/89
f 4/4/90 88/119/91 6/6/92 5/5/93
f 3/3/89 87/118/88 88/119/91 4/4/90
f 2/2/86 1/13/94 12/12/95 86/117/87
f 86/117/87 12/12/95 11/11/96 10/10/97
f 87/118/88 86/117/87 10/10/97 9/9/98
f 88/119/91 87/118/88 9/9/98 8/8/99
f 6/6/92 88/119/91 8/8/99 7/7/100
f 1/1/94 2/2/86 90/122/2 89/121/1
f 2/2/86 3/3/89 91/123/5 90/122/2
f 3/3/89 4/4/90 92/124/7 91/123/5
f 4/4/90 5/5/93 93/125/9 92/124/7
f 5/5/93 6/6/92 94/126/11 93/125/9
f 6/6/92 7/7/100 95/127/13 94/126/11
f 7/7/100 8/8/99 96/128/15 95/127/13
f 8/8/99 9/9/98 97/129/17 96/128/15
f 9/9/98 10/10/97 98/130/19 97/129/17
f 10/10/97 11/11/96 99/131/21 98/130/19
f 11/11/96 12/12/95 100/132/23 99/131/21
f 12/12/95 1/13/94 89/120/1 100/132/23
